<?xml version="1.0" encoding="UTF-8"?>
<svg id="uuid-d456eea9-6a33-4c06-abbe-04b6c00fd7c8" data-name="Capa 1" xmlns="http://www.w3.org/2000/svg" width="150" height="40" viewBox="0 0 150 40">
  <g>
    <path d="m44.1207,25.4611c0-5.4067,4.7065-9.945,10.2253-9.945,5.5746,0,10.225,4.5383,10.225,9.945s-4.6504,9.9727-10.225,9.9727c-5.5188,0-10.2253-4.566-10.2253-9.9727Zm16.2201,0c0-3.3338-2.7454-6.191-5.9948-6.191-3.2216,0-5.9671,2.8572-5.9671,6.191,0,3.3615,2.7454,6.2191,5.9671,6.2191,3.2494,0,5.9948-2.8576,5.9948-6.2191Z" fill="#575756"/>
    <path d="m77.3919,30.5314l2.6056,2.6613c-1.2889,1.3447-3.782,2.2411-5.911,2.2411-4.3143,0-7.6759-3.1653-7.6759-7.6198,0-4.3701,3.2217-7.5357,7.4516-7.5357,4.5383,0,7.1996,3.446,7.1996,8.9084h-10.4493c.4763,1.5689,1.7372,2.6336,3.446,2.6336,1.1484,0,2.5492-.5323,3.3335-1.2889Zm-6.7233-4.286h6.4714c-.3922-1.4288-1.4568-2.3533-3.1095-2.3533-1.5409,0-2.8295.8964-3.3618,2.3533Z" fill="#575756"/>
    <path d="m82.5503,27.842c0-4.1178,3.6419-7.5637,7.9278-7.5637,2.3533,0,4.2863.9525,5.6867,2.4654l-2.7174,2.3252c-.7282-.8127-1.8767-1.3447-2.9974-1.3447-2.1289,0-3.9218,1.8767-3.9218,4.0897,0,2.2692,1.7929,4.1742,3.9499,4.1742,1.1207,0,2.2972-.5604,3.0534-1.4007l2.7174,2.2972c-1.4288,1.5689-3.3895,2.5492-5.7989,2.5492-4.286,0-7.8998-3.4737-7.8998-7.5918Z" fill="#575756"/>
    <path d="m111.9041,25.8812v9.2164h-3.9499v-8.348c0-1.7929-1.1204-3.0254-2.7454-3.0254-1.7088,0-3.0254,1.2325-3.0254,2.8011v8.5723h-4.0901V15.5161h4.0901v6.8635c.8964-1.2609,2.4931-2.1013,4.3421-2.1013,3.1376,0,5.3787,2.3252,5.3787,5.603Z" fill="#575756"/>
    <path d="m113.9307,33.2487l1.7652-2.8292c1.2886.9245,2.9133,1.6247,4.8463,1.6247,1.0924,0,1.8767-.4482,1.8767-1.0927,0-.8964-1.0643-1.1765-2.5492-1.5686-2.9694-.7282-5.2666-1.5409-5.2946-4.3982-.028-2.7454,2.2411-4.7065,5.6587-4.7065,2.0732,0,4.1181.7286,5.7151,1.7929l-1.6531,2.9136c-1.3166-.8123-2.8292-1.2886-4.062-1.2886-1.0083,0-1.7088.3641-1.7088.8684,0,.7843.5884,1.0082,2.5495,1.5406,2.4931.6445,5.2665,1.4849,5.2665,4.6504,0,2.8575-2.3252,4.6781-5.883,4.6781-2.3252,0-4.7903-.7843-6.5274-2.1851Z" fill="#575756"/>
    <path d="m128.8156,15.5161h4.0901v19.5816h-4.0901V15.5161Z" fill="#575756"/>
    <path d="m146.3301,30.5314l2.6052,2.6613c-1.2886,1.3447-3.7817,2.2411-5.9107,2.2411-4.3144,0-7.6759-3.1653-7.6759-7.6198,0-4.3701,3.2216-7.5357,7.4516-7.5357,4.5383,0,7.1996,3.446,7.1996,8.9084h-10.4493c.4763,1.5689,1.7372,2.6336,3.446,2.6336,1.1484,0,2.5492-.5323,3.3335-1.2889Zm-6.7234-4.286h6.4714c-.3922-1.4288-1.4568-2.3533-3.1095-2.3533-1.5409,0-2.8295.8964-3.3619,2.3533Z" fill="#575756"/>
  </g>
  <path d="m34.1421,5.8585c-7.8104-7.8115-20.4742-7.8115-28.2837.001-7.8113,7.8086-7.8113,20.4746,0,28.2833,7.8085,7.8087,20.4733,7.8106,28.2837,0,7.8104-7.8087,7.8104-20.4756,0-28.2843ZM5.8585,31.3133c-4.6877-4.6841-2.7875-14.1817,4.2413-21.2106C17.1314,3.0709,26.6269,1.1716,31.3147,5.8595c4.6868,4.6859,2.7865,14.1845-4.2422,21.2134-7.0307,7.029-16.5262,8.9273-21.214,4.2405Z" fill="#27348b"/>
</svg>
